<svg xmlns="http://www.w3.org/2000/svg" viewBox="0 0 100 100" width="100" height="100">
  <!-- Open book -->
  <path d="M50 32 C38 24, 22 26, 14 30 L14 74 C22 70, 38 68, 50 76 C62 68, 78 70, 86 74 L86 30 C78 26, 62 24, 50 32 Z" fill="#f8fafc" stroke="#334155" stroke-width="2"/>
  <!-- Spine -->
  <line x1="50" y1="32" x2="50" y2="76" stroke="#94a3b8" stroke-width="2"/>
  <!-- Text lines -->
  <line x1="22" y1="42" x2="42" y2="40" stroke="#cbd5e1" stroke-width="2"/>
  <line x1="22" y1="50" x2="42" y2="48" stroke="#cbd5e1" stroke-width="2"/>
  <line x1="22" y1="58" x2="38" y2="56" stroke="#cbd5e1" stroke-width="2"/>
  <line x1="58" y1="40" x2="78" y2="42" stroke="#cbd5e1" stroke-width="2"/>
  <line x1="58" y1="48" x2="78" y2="50" stroke="#cbd5e1" stroke-width="2"/>
  <line x1="62" y1="56" x2="78" y2="58" stroke="#cbd5e1" stroke-width="2"/>
</svg>