<svg xmlns="http://www.w3.org/2000/svg" viewBox="0 0 100 100" width="100" height="100">
  <!-- Camera body -->
  <path d="M22 36 L34 36 L38 28 L62 28 L66 36 L78 36 C82 36, 85 39, 85 43 L85 72 C85 76, 82 79, 78 79 L22 79 C18 79, 15 76, 15 72 L15 43 C15 39, 18 36, 22 36 Z" fill="#1e293b" stroke="#0f172a" stroke-width="2"/>
  <!-- Lens rings -->
  <circle cx="50" cy="56" r="18" fill="#0f172a" stroke="#475569" stroke-width="2"/>
  <circle cx="50" cy="56" r="14" fill="#1e293b" stroke="#0284c7" stroke-width="1.5"/>
  <circle cx="50" cy="56" r="9" fill="#0369a1"/>
  <circle cx="46" cy="52" r="3" fill="#ffffff" opacity="0.6"/>
  <!-- Flash & dial -->
  <circle cx="74" cy="44" r="3" fill="#f59e0b"/>
  <rect x="68" y="24" width="8" height="4" rx="1" fill="#475569"/>
</svg>